<svg id="Layer_1" enable-background="new 0 0 511.382 511.382" height="512" viewBox="0 0 511.382 511.382" width="512" xmlns="http://www.w3.org/2000/svg"><path d="m338.358.024h-317.334c-11.598 0-21 9.402-21 21v362.667c0 11.598 9.402 21 21 21h317.334c24.625 0 44.694-19.882 44.996-44.438.006-.272.004 10.823.004-315.229 0-24.814-20.186-45-45-45z" fill="#f1ebeb"/><path d="m202.821 109.883-170.667-106.667c-13.961-8.725-32.13 1.329-32.13 17.808v362.667c0 7.24 3.73 13.971 9.87 17.808l170.667 106.667c13.963 8.727 32.13-1.33 32.13-17.808v-362.667c0-7.24-3.73-13.971-9.87-17.808z" fill="#fe929f"/><path d="m148.691 287.358c-11.598 0-21-9.402-21-21v-21.334c0-11.598 9.402-21 21-21s21 9.402 21 21v21.334c0 11.597-9.402 21-21 21z" fill="#d86c83"/><g fill="#ccc"><path d="m405.024 191.358h-106.666c-11.598 0-21-9.402-21-21s9.402-21 21-21h106.666c11.598 0 21 9.402 21 21s-9.402 21-21 21z"/><path d="m458.341 234.025c-16.971 0-27.311-19.565-16.783-33.602l22.55-30.065-22.55-30.067c-6.959-9.278-5.078-22.44 4.2-29.399 9.28-6.959 22.441-5.076 29.399 4.2l32 42.667c5.601 7.467 5.601 17.733 0 25.2l-32 42.666c-4.124 5.499-10.431 8.4-16.816 8.4z"/><path d="m490.358 319.358h-53.334c-11.598 0-21-9.402-21-21s9.402-21 21-21h53.334c11.598 0 21 9.402 21 21s-9.402 21-21 21z"/></g></svg>